<?xml version="1.0" encoding="UTF-8" standalone="no"?>
<!-- Created with Inkscape (http://www.inkscape.org/) -->

<svg width="108.08522mm" height="140.35326mm" viewBox="0 0 108.08522 140.35326" version="1.1" id="svg1"
  xml:space="preserve" xmlns="http://www.w3.org/2000/svg" xmlns:svg="http://www.w3.org/2000/svg">
  <g id="g6" style="display:inline" transform="translate(-47.952112,-110.36173)">
    <path id="path5" style="display:inline;fill:#000000"
      d="m 140.85652,110.36174 c -0.6276,0.002 -1.3041,0.14983 -2.02727,0.47594 -4.06037,1.83097 -5.50718,6.27822 -2.74867,8.44806 1.3799,1.08543 3.78995,1.45838 3.78995,0.58653 0,-0.26396 -0.46244,-0.6267 -1.02784,-0.80615 -0.5654,-0.17945 -1.17021,-0.89157 -1.34359,-1.58234 -0.86789,-3.45795 4.07382,-5.45371 5.70301,-2.30321 0.89562,1.73195 1.03052,3.92987 0.27027,4.39973 -0.29794,0.18414 -0.51418,-0.31093 -0.51418,-1.17616 0,-1.9521 -1.76,-3.63813 -2.98948,-2.86391 -1.31939,0.83084 -1.39531,2.26522 -0.13746,2.59416 1.38075,0.36107 1.84045,2.21133 1.18804,4.78162 -0.5475,2.15696 -4.4215,8.55652 -10.75283,17.76274 -7.88721,11.46859 -8.85995,14.73465 -9.42423,31.64768 -0.45659,13.68526 -0.71009,15.1512 -3.75998,21.74183 -2.2659,4.8965 -1.56589,5.31956 0.85059,0.51418 3.09308,-6.15086 3.86432,-10.01981 4.18011,-20.96978 0.41284,-14.31498 0.73558,-16.12014 4.09742,-22.92315 2.13091,-4.31211 4.74619,-7.98062 9.86297,-13.83378 3.20153,-3.66227 8.98056,-13.14752 9.81955,-16.11736 1.34308,-3.25254 -0.64316,-10.39064 -5.03638,-10.37663 z m -18.32188,11.72745 c -1.60848,-0.14581 -3.34805,0.37458 -4.59197,1.6185 -2.20875,2.20874 -1.29765,7.51175 1.35547,7.88945 1.22637,0.17459 1.23986,0.14538 0.37311,-0.81236 -2.62699,-2.90279 0.9654,-8.05317 3.70572,-5.31285 1.0811,1.08111 1.31071,3.0823 0.56379,4.91494 -0.37579,0.92204 -0.45557,0.86838 -0.76637,-0.51469 -0.48536,-2.15993 -1.05203,-3.08767 -1.88567,-3.08767 -0.93145,0 -1.26492,2.84646 -0.39636,3.38326 0.93385,0.57714 -0.16586,8.04534 -2.49494,16.94366 -2.05776,7.86178 -2.29994,12.4172 -1.46089,27.44949 0.34769,6.22913 0.58573,7.9286 1.00924,7.20421 0.35395,-0.60534 0.47353,-3.45929 0.33125,-7.89512 -0.59183,-18.45082 -0.39829,-19.711 5.19813,-33.85117 3.71798,-9.39405 4.32139,-12.66948 2.86443,-15.54995 -0.7192,-1.42187 -2.19646,-2.2339 -3.80494,-2.3797 z m 29.91652,1.28467 c -1.42257,-0.0225 -2.90075,0.51535 -3.9858,1.15601 -1.39118,0.82141 -3.92172,3.57932 -3.55382,6.0329 0.5872,3.91613 3.85812,0.55976 3.85812,0.55976 0,0 -2.33907,-0.29917 -1.49527,-2.51312 0.31234,-0.81954 1.59487,-2.13648 3.01669,-2.07398 2.87499,0.12638 2.69942,4.15404 0.61456,5.13623 -0.61211,0.28837 0.26924,-0.32843 0.70537,-1.44694 1.47644,-3.78651 -3.62919,-3.34596 -2.75906,0.2949 0.28831,1.20636 -1.96236,2.96015 -7.66518,8.44141 -7.72706,7.42688 -12.5497,13.41199 -14.8177,18.38854 -1.67116,3.66694 -2.9896,9.69612 -2.9192,13.34957 0.0408,2.117 0.22113,1.70341 1.53479,-3.51865 2.83019,-11.25053 7.87777,-18.39287 19.25981,-27.25156 2.26422,-1.76225 5.61769,-3.79311 7.07553,-5.03122 0,0 3.10983,-1.98871 3.79146,-3.53996 0.9923,-2.25825 1.53418,-5.39406 -0.20356,-7.14466 -0.75867,-0.59088 -1.60316,-0.82573 -2.4567,-0.83923 z m -62.940345,23.13968 c -0.192477,0.007 -0.423001,0.64485 -0.622184,2.08773 -0.216818,1.57062 -1.332089,4.69919 -2.567802,7.20421 -2.597809,5.26624 -7.121375,10.02879 -12.447302,13.10566 -1.892742,1.09346 -3.561539,2.36713 -3.708818,2.83032 -0.147279,0.46319 -2.553824,3.07817 -5.347477,5.81101 -2.793654,2.73284 -6.188099,6.3801 -7.543209,8.10493 -2.44011,3.10587 -3.60282,3.97458 -2.992582,2.23552 0.489654,-1.39542 5.383184,-7.81887 9.161198,-12.02562 1.876027,-2.08892 3.891689,-4.72438 4.479313,-5.85649 0.587625,-1.13211 1.430624,-2.26886 1.873271,-2.52594 3.098752,-1.79965 7.322826,-7.41995 7.283276,-9.69037 -0.0062,-0.35687 -0.440132,0.27764 -0.964282,1.40974 -1.451968,3.13611 -6.118473,6.93249 -8.544181,6.95099 -0.693521,0.005 -1.358855,0.69516 -2.039669,2.11564 -0.555683,1.15939 -2.06102,2.93793 -3.345015,3.95221 -1.283995,1.01427 -2.798222,-0.31641 -14.23324,17.87849 0.499385,1.30138 3.637547,1.16814 7.297746,-0.30954 0.956463,-0.38614 2.323759,-0.49475 3.484541,-0.27698 2.067943,0.38794 5.247675,2.84883 5.757788,4.45606 0.174127,0.54862 0.518571,0.99735 0.765328,0.99735 0.246757,0 2.15703,-1.22565 4.245219,-2.72386 4.642637,-3.33094 11.688857,-7.05627 13.326319,-7.04557 0.664351,0.004 1.555183,0.22914 1.979724,0.4992 0.638242,0.406 0.659496,0.67185 0.124023,1.53582 -0.356188,0.57469 -0.490039,1.0449 -0.297656,1.0449 0.731337,0 2.231905,-1.74145 2.231905,-2.59003 0,-2.78132 -4.467425,-2.63352 -9.338965,0.30903 -3.73635,2.25686 -10.499957,7.15263 -11.000362,7.9623 -0.402974,0.65203 -1.788004,-0.32872 -1.788004,-1.26607 0,-0.33251 2.32174,-2.56187 5.159891,-4.95422 5.505147,-4.64043 10.907731,-10.68364 13.707691,-15.33343 2.099809,-3.48708 2.26796,-5.10414 0.243913,-2.34456 -2.168873,2.95704 -3.646757,4.41628 -6.375322,6.29316 -1.34438,0.92475 -2.444295,1.89967 -2.444295,2.16679 0,0.26712 -2.257748,2.13824 -5.017265,4.15789 -2.759516,2.01966 -5.76668,4.37927 -6.682279,5.2436 -0.915599,0.86434 -1.835871,1.40063 -2.044837,1.19166 -0.399539,-0.39954 1.52835,-2.32597 7.01921,-7.01507 1.820272,-1.55449 4.308018,-4.18147 5.528345,-5.83737 1.220328,-1.65591 2.857234,-3.49679 3.637504,-4.09123 0.78027,-0.59443 1.881857,-1.64949 2.447912,-2.34456 0.566054,-0.69508 1.937683,-2.32768 3.048393,-3.62768 3.075949,-3.60015 6.544234,-11.31542 6.86108,-15.26264 0.216105,-2.69221 0.002,-4.43429 -0.318844,-4.42298 z m 6.272486,36.94968 c -1.274989,-0.0773 -2.978024,0.32084 -4.893242,1.27951 -2.297762,1.15015 -3.261581,2.35545 -1.401981,1.75338 4.388992,-1.42099 7.649789,-0.46429 6.220292,1.82469 -0.339154,0.54308 -0.441012,0.98327 -0.226343,0.97927 0.697211,-0.0141 1.510261,-0.73959 2.1146,-1.88774 1.24825,-2.37148 0.311654,-3.82037 -1.813326,-3.94911 z m 22.186759,2.27066 c -0.12718,-0.0583 -0.37537,0.29399 -0.72295,1.2082 -1.71524,4.51142 -8.17726,12.54348 -11.98325,14.8947 -2.16292,1.33619 -1.71383,0.5547 1.69757,-2.95435 3.4063,-3.5038 6.15496,-7.33528 6.12986,-8.54521 -0.011,-0.53035 -0.21188,-0.43634 -0.64131,0.30024 -1.6285,2.79326 -6.31586,7.05463 -9.5591,8.69042 -2.45402,1.23774 -1.8952,-0.0235 0.99839,-2.2536 2.22161,-1.71221 2.23815,-1.74625 0.70073,-1.44746 -0.86601,0.1683 -3.57556,1.26136 -6.020823,2.42879 -3.422283,1.63389 -5.097269,2.82577 -7.275008,5.17798 -1.556019,1.68069 -3.203708,3.05614 -3.661792,3.05614 -0.458083,0 -1.338782,0.25957 -1.956986,0.57723 -0.746497,0.38359 -0.475973,-0.0988 0.805635,-1.43661 1.061352,-1.10792 1.930115,-2.29416 1.930115,-2.63601 0,-1.09288 -2.651744,-0.66914 -5.990849,0.95756 -3.186882,1.55255 -3.263624,1.56356 -4.527372,0.64338 -0.70702,-0.51481 -1.292829,-1.11266 -1.301729,-1.32861 -0.0089,-0.21595 1.026355,-0.89889 2.300118,-1.51773 1.753606,-0.85197 2.46058,-0.98056 2.91145,-0.52969 0.450874,0.45087 0.435207,0.78809 -0.06356,1.38907 -0.946932,1.14099 -0.09233,0.97749 1.851566,-0.3545 1.662769,-1.13934 2.761589,-2.84239 2.761589,-4.27933 0,-1.79917 -4.945997,-0.49166 -10.401949,2.7497 -2.892283,1.71829 -2.976381,1.73494 -5.145939,1.00511 l -2.20555,-0.74207 1.80144,-1.1064 c 2.102573,-1.29145 3.601847,-1.43251 3.601847,-0.33848 0,1.08964 0.893248,0.95907 1.526005,-0.22324 1.983004,-3.70528 -1.214011,-4.75835 -6.44095,-2.12183 -2.01355,1.01562 -3.261058,1.36878 -3.78995,1.0728 -0.457836,-0.2562 -1.194622,-0.22398 -1.756998,0.077 -0.661131,0.35383 -1.705502,0.33285 -3.291789,-0.0667 -2.754267,-0.69353 -3.293363,-0.42796 -1.506885,0.74259 2.133512,1.39793 5.987143,2.67898 10.722343,3.56412 2.457023,0.45929 5.23603,1.18858 6.175334,1.62109 l 1.707906,0.78651 -1.544092,-0.27388 c -0.849082,-0.15068 -4.339738,-0.72082 -7.757149,-1.26659 -3.417411,-0.54578 -7.006746,-1.32444 -7.976258,-1.73064 -2.820671,-1.1818 -5.03454,-3.3621 -5.712829,-5.62602 -0.559313,-1.86683 -0.523525,-2.15661 0.346232,-2.79259 0.533707,-0.39026 1.540766,-0.70952 2.238106,-0.70952 1.222784,0 1.235732,0.0359 0.363286,0.99994 -0.868455,0.95963 -0.851592,1.05217 0.411861,2.31562 1.489537,1.48954 3.472448,1.70553 4.669482,0.5085 0.591994,-0.592 0.672437,-1.06096 0.300757,-1.75545 -0.692137,-1.29327 -3.7155,-3.0957 -5.212085,-3.1073 -1.944627,-0.015 -7.095906,1.73954 -7.400582,2.52077 -0.335566,0.86043 1.756625,4.54091 3.424081,6.02341 2.391247,2.12601 6.538869,3.38305 13.608471,4.12429 3.746419,0.3928 7.415586,0.94366 8.153508,1.22422 1.928542,0.73323 2.179974,1.90328 0.665075,3.0949 -1.762131,1.38609 -2.026954,2.82049 -0.806669,4.37183 1.034668,1.31537 2.669654,1.64889 3.988904,0.8139 0.624272,-0.39512 0.608282,-0.6506 -0.109554,-1.74615 -0.774104,-1.18139 -0.774663,-1.33788 -0.0088,-1.97352 1.083377,-0.89914 4.907801,-0.88935 5.998084,0.0155 1.335526,1.10839 1.008235,2.784 -1.002006,5.13251 -2.391627,2.79408 -3.946701,3.56181 -8.07496,3.98477 -2.941791,0.30139 -3.605045,0.20049 -5.212085,-0.79272 -0.851807,-1.31319 -3.005508,-2.46428 -3.8809,-3.34657 -0.535973,-0.6458 -0.385616,-0.67279 1.095024,-0.19585 2.791923,0.89932 5.060673,1.11704 5.060673,0.48576 0,-0.31399 -0.289071,-0.57161 -0.642855,-0.57361 -0.962331,-0.004 -4.141218,-0.96298 -4.984192,-1.50327 -0.621659,-0.39845 -0.629292,-0.60624 -0.04651,-1.30845 0.467336,-0.44998 3.615284,-1.97043 3.615284,-2.27583 0,-0.33053 -1.093433,-0.11739 -2.701644,0.52607 -1.801148,0.72065 -3.7027,1.05539 -5.705595,1.00459 -2.240446,-0.0568 -3.728027,0.25525 -5.851323,1.22732 -1.56593,0.71691 -3.687806,1.30703 -4.714957,1.31103 -1.027151,0.004 -2.208554,0.22384 -2.625163,0.48731 -0.871625,0.55123 -1.248126,0.37662 4.35994,2.01538 4.436765,1.29648 8.965862,3.95541 10.017477,5.88077 0.73132,1.33894 0.716787,1.49801 -0.202572,2.18178 -0.545393,0.40564 -0.85229,0.87681 -0.682129,1.04697 0.462684,0.46269 3.040772,-0.93605 3.68453,-1.99885 0.467748,-0.77222 0.23951,-1.22557 -1.360124,-2.70164 -1.057196,-0.97554 -1.798341,-1.77354 -1.646928,-1.77354 0.853141,0 3.363729,1.70883 3.852478,2.62207 0.824573,1.54073 3.244006,2.37947 8.080644,2.80138 2.919772,0.2547 4.977728,0.16529 6.588745,-0.28577 3.567002,-0.9987 4.009884,-0.17732 1.894458,3.51296 -5.522397,9.63359 -6.957738,14.96362 -4.771802,17.72243 h 5.17e-4 c 2.455419,3.09892 6.503464,1.1262 7.994861,-3.89588 0.961123,-3.23645 0.963249,-4.01469 0.01499,-5.26842 -0.976629,-1.29122 -0.976654,-1.77095 5.17e-4,-1.77095 0.433949,0 1.997205,-0.60923 3.47369,-1.35392 3.915128,-1.97465 4.407084,-2.99922 1.866036,-3.88503 l -1.590084,-0.55449 2.748153,-1.48518 c 5.512162,-2.97938 5.676873,-5.07153 0.399458,-5.07153 -3.160365,0 -4.442803,0.6983 -2.279447,1.24127 0.705612,0.1771 1.283126,0.5446 1.283126,0.81649 0,0.7078 -3.847238,2.57348 -5.306653,2.57348 -1.018596,0 -1.506553,0.59907 -2.829285,3.47369 -0.87907,1.91044 -1.932292,4.91099 -2.340942,6.66833 -0.636965,2.73916 -0.640107,3.28086 -0.0217,3.79408 0.396738,0.32926 0.721403,0.83398 0.721403,1.1219 0,0.28793 0.404906,0.82531 0.900203,1.19372 1.198814,0.8917 0.253907,2.53112 -1.458825,2.53112 -2.963511,0 -2.439234,-6.8014 1.168404,-15.15618 1.166857,-2.70228 2.108715,-5.67065 2.092895,-6.5965 -0.01696,-0.9924 0.21442,-1.64619 0.56379,-1.59319 1.187681,0.18023 4.386051,-1.62253 4.714441,-2.6572 0.642073,-2.02299 -1.538649,-3.34735 -2.870109,-1.74304 -0.371505,0.44764 -2.078469,1.53648 -3.793567,2.41949 -2.722447,1.40164 -3.641128,1.60575 -7.235217,1.61075 -2.882988,0.004 -4.579516,-0.25127 -5.660637,-0.85008 l -1.543575,-0.85524 2.657719,0.29817 c 3.014162,0.33796 8.688794,-0.58597 11.750704,-1.91306 1.132109,-0.49068 2.984436,-1.74036 4.116545,-2.77709 2.188177,-2.00383 1.340282,-1.80784 -2.43396,0.56224 -2.606407,1.63672 -2.755627,1.52696 -0.98702,-0.72451 2.873367,-3.65785 2.604339,-5.6914 -0.890902,-6.7386 -2.971897,-0.8904 -6.171614,-0.271 -6.903971,1.33635 -0.485106,1.06469 -0.422012,1.38486 0.392224,1.98024 1.180636,0.8633 0.752173,1.45602 -0.715719,0.99012 -1.385354,-0.43969 -1.368399,-2.00465 0.04341,-3.98735 0.906067,-1.27246 1.000703,-1.73904 0.510563,-2.52388 -0.731159,-1.17077 -0.223351,-1.25323 0.984436,-0.1602 0.806047,0.72947 1.065833,0.70609 2.863391,-0.25734 1.087222,-0.58272 2.421322,-1.05989 2.964677,-1.05989 0.896668,0 0.915127,0.0834 0.203088,0.90072 -1.137224,1.30544 -0.571664,2.18695 1.403015,2.18695 1.682232,0 3.338815,1.07331 3.338815,2.16317 0,0.30016 -0.469809,1.30565 -1.043864,2.23449 l -1.043347,1.68879 1.117244,-0.29197 c 0.614602,-0.16072 2.105824,-1.24111 3.31401,-2.40037 1.784713,-1.71243 2.147672,-2.36459 1.933732,-3.47731 -0.199524,-1.03775 0.0046,-1.51273 0.843359,-1.96164 1.722715,-0.92197 3.377286,-0.48101 3.328996,0.88729 -0.04657,1.31976 -0.02503,1.32615 2.231386,0.67903 0.91797,-0.26329 1.66863,-0.3895 1.66863,-0.28061 0,0.10889 -0.63015,0.82807 -1.40043,1.59835 -0.7703,0.77029 -1.150515,1.48408 -0.844907,1.58595 0.305607,0.10187 0.944087,0.46906 1.418517,0.81597 0.76397,0.55862 0.77673,0.7475 0.11368,1.65365 -0.61516,0.84075 -1.261361,1.00145 -3.624575,0.90072 -1.787303,-0.0762 -3.701879,0.21113 -5.05809,0.75913 l -2.182295,0.8816 1.543575,0.2868 c 1.357774,0.25205 1.534857,0.48619 1.468127,1.94252 -0.04173,0.91072 0.115546,1.65571 0.349333,1.65571 0.567577,0 2.042252,-1.49859 2.042252,-2.07532 0,-0.2519 0.98408,-0.71286 2.186947,-1.02423 1.202866,-0.31138 3.733396,-1.11064 5.623436,-1.77612 2.8135,-0.99063 3.59518,-1.09381 4.31085,-0.57051 0.70643,0.51656 0.76257,0.84692 0.29403,1.72238 -0.77147,1.44153 -0.7316,1.69147 0.21135,1.32963 1.12714,-0.43252 2.29198,-2.91595 1.96113,-4.18114 -0.33088,-1.26525 -1.44396,-1.79226 -2.95332,-1.39836 -1.0119,0.26407 -1.00395,0.22338 0.12041,-0.5979 1.20072,-0.87706 5.5824,-5.88181 7.54218,-8.61498 1.8357,-2.56012 7.92631,-6.99957 9.60303,-6.99957 0.98198,0 1.39681,-0.20211 1.16944,-0.56999 -0.22262,-0.36021 -1.123,-0.44666 -2.44584,-0.23513 l -2.09342,0.33487 1.00045,-1.12655 c 0.55013,-0.61953 2.04194,-2.15663 3.31557,-3.41581 2.40622,-2.37894 2.04229,-2.44059 -0.99994,-0.1695 -1.57278,1.1741 -1.72484,1.20692 -1.34927,0.29352 0.23277,-0.56605 0.53845,-1.60805 0.67903,-2.31562 0.34417,-1.73221 -0.53276,-0.78808 -1.4335,1.54357 -1.42726,3.69454 -6.45356,10.60758 -11.50524,15.82385 -3.85618,3.98182 -5.26436,4.22466 -2.12132,0.36586 2.82672,-3.47045 2.97201,-4.37671 0.39222,-2.45101 -2.03378,1.51813 -1.94282,1.30116 1.01389,-2.41742 3.40579,-4.28336 6.49579,-9.26987 7.36338,-11.88196 0.55755,-1.6786 0.68118,-2.91616 0.46922,-3.01326 z m -25.904362,2.06189 c -0.862978,0.0526 -1.940903,0.30964 -3.028239,0.75861 -3.223865,1.33116 -9.796026,5.49346 -10.048482,6.36395 -0.131121,0.45212 -0.414755,1.25143 -0.629936,1.77612 -0.287944,0.7021 0.273964,0.48098 2.128553,-0.83715 3.148298,-2.23761 5.118193,-3.23237 7.355106,-3.71451 1.602788,-0.34545 1.724095,-0.28656 1.463477,0.71004 -0.358467,1.37075 0.144287,1.37389 1.875854,0.0119 1.575945,-1.23964 3.074793,-3.86906 2.622579,-4.60075 -0.227944,-0.36882 -0.875933,-0.52077 -1.738912,-0.46819 z m -10.168371,0.0661 c -0.896073,-0.029 -2.265142,0.34795 -3.934644,1.21956 -2.75399,1.43781 -11.164693,6.88864 -11.164693,7.23574 0,0.4485 0.792154,0.10196 3.534668,-1.54668 3.382492,-2.03336 6.552484,-3.64421 8.133354,-4.13256 0.900864,-0.27829 1.152703,-0.11549 1.291394,0.83457 0.168814,1.1564 0.206991,1.14656 1.882055,-0.49454 1.931047,-1.89189 1.75132,-3.06773 0.257866,-3.11609 z m 16.206246,3.20445 c -1.283493,-0.12695 -2.862838,0.28338 -3.487126,1.0356 -0.440283,0.53047 -0.154478,0.6572 1.379244,0.6103 1.913363,-0.0585 1.934411,-0.0379 1.876371,1.87017 -0.03228,1.06135 0.11308,1.93011 0.322978,1.93011 0.68242,0 1.523619,-1.34921 1.84588,-2.96054 0.25497,-1.27486 0.10243,-1.6901 -0.798916,-2.17248 -0.315691,-0.16895 -0.710601,-0.27084 -1.138431,-0.31316 z m -3.75326,2.90629 c -1.873333,0.12445 -4.349633,1.32229 -4.968172,2.94917 -0.290568,0.76425 -0.895396,1.79552 -1.344104,2.29133 -1.097955,1.21323 -0.493529,1.13463 1.908928,-0.24804 2.221204,-1.27837 2.968073,-1.05074 2.068607,0.62993 -0.540716,1.01034 -0.503631,1.06324 0.40256,0.57826 1.610487,-0.8619 4.296509,-4.20215 4.121712,-5.12578 -0.158482,-0.83742 -1.065531,-1.14954 -2.189531,-1.07487 z m 35.189067,19.26394 -2.18901,2.43706 c -1.20389,1.34038 -3.44493,4.78391 -4.98006,7.65224 -2.2704,4.24213 -3.39652,5.72909 -6.03684,7.96903 -4.15363,3.52377 -6.73248,5.01875 -11.92641,6.9143 -4.480605,1.63523 -8.232228,1.95609 -10.688233,0.91468 -1.313029,-0.55677 -1.013661,-0.64443 3.195671,-0.93742 6.771492,-0.47134 11.071082,-2.64045 15.939592,-8.04136 1.98119,-2.19785 3.97681,-4.83228 4.43487,-5.85443 0.45807,-1.02216 1.58905,-2.71951 2.51303,-3.77186 0.92398,-1.05236 1.5579,-2.03568 1.4087,-2.18488 -0.29438,-0.29438 -3.09239,2.36681 -6.18205,5.87923 -1.06833,1.21451 -2.61728,2.44354 -3.44217,2.7311 -0.91312,0.31831 -1.39805,0.78857 -1.2392,1.20251 0.14349,0.37395 -0.27573,1.19413 -0.93173,1.82263 -1.64443,1.5755 -8.20007,4.70721 -9.28367,4.43487 -0.487653,-0.12256 -2.22467,0.32707 -3.85971,0.99942 -1.635041,0.67236 -3.790697,1.22807 -4.790405,1.23507 l -1.817461,0.0119 -0.03927,2.72852 c -0.04563,3.1564 -0.647042,4.52675 -3.122806,7.11843 -2.074474,2.1716 -2.005065,2.25694 2.881477,3.56102 3.892555,1.03881 7.237832,0.85222 11.010695,-0.61443 1.35485,-0.52668 2.97552,-0.95974 3.60185,-0.96274 2.02617,-0.009 6.17903,-2.34338 10.85205,-6.1004 2.51191,-2.01954 4.31265,-3.67213 4.00182,-3.67213 -0.31083,0 -2.26817,1.05147 -4.35012,2.3363 -6.53889,4.03533 -10.69763,5.50081 -16.386595,5.77432 -4.818711,0.23167 -8.673372,-0.40643 -8.673372,-1.43557 0,-0.24726 1.91076,-0.32859 4.245735,-0.18087 3.430628,0.21703 4.936744,0.0556 7.847582,-0.84026 1.98119,-0.60977 4.32338,-1.1646 5.20485,-1.233 2.20793,-0.17134 6.07431,-2.53242 9.52655,-5.81773 2.35637,-2.24244 3.4585,-3.92691 5.91695,-9.04183 1.66166,-3.45715 3.99675,-8.25356 5.18935,-10.65929 z m -69.786955,1.80919 c 0.834203,-0.005 1.31112,0.20946 1.12758,0.50643 -0.394885,0.63894 -0.812238,0.63894 -1.800924,0 -0.599348,-0.38733 -0.449042,-0.50043 0.673344,-0.50643 z m 44.873235,0.16691 c -0.49408,-0.0245 -1.14081,0.0834 -1.94201,0.36174 -1.73808,0.60388 -2.14949,0.97718 -2.03036,1.84278 0.11041,0.8023 -0.31272,1.30488 -1.621609,1.92598 -0.974023,0.46221 -2.039066,0.84078 -2.36678,0.84078 -0.327716,0 -0.45294,0.23115 -0.278019,0.51418 0.581218,0.94043 3.989628,0.5363 6.148978,-0.72916 3.50022,-2.05126 4.23079,-4.65008 2.0898,-4.7563 z m 7.7773,0.18139 c -0.4436,0.005 -0.86248,0.16352 -1.46865,0.47697 -1.73946,0.89951 -1.8562,1.4448 -0.22169,1.03456 0.68167,-0.17108 1.62966,0.0113 2.18695,0.42065 0.95437,0.70104 0.95607,0.77 0.0543,2.30477 -1.14586,1.94997 -0.62438,2.03041 1.28726,0.19895 1.92495,-1.84422 1.85469,-3.12521 -0.21911,-3.99717 -0.707,-0.2973 -1.17542,-0.44419 -1.61902,-0.43873 z m -2.93212,3.12746 c -1.68625,-0.0982 -5.48932,1.23021 -7.23625,2.6448 l -1.14154,0.92449 1.63505,-0.2403 c 3.89001,-0.57093 0.48234,2.8633 -4.797127,4.83433 -2.441506,0.9115 -2.494298,0.96953 -1.029394,1.13482 0.849082,0.0958 1.787722,0.37537 2.085661,0.62166 0.318462,0.26326 1.13793,0.13847 1.98851,-0.30282 1.65357,-0.85788 4.20629,-0.99262 4.66741,-0.2465 0.56694,0.91732 -0.79176,2.60945 -3.36878,4.1951 -1.3982,0.86033 -2.542483,1.66042 -2.542483,1.77766 0,0.54922 1.072233,0.0209 4.789893,-2.36109 2.20972,-1.41581 3.88634,-2.78668 3.72587,-3.04633 -0.16048,-0.25965 0.28915,-0.92959 0.99942,-1.48828 1.78189,-1.40163 1.6223,-1.70445 -0.70228,-1.33273 -1.2358,0.19761 -2.12774,0.10218 -2.34611,-0.25115 -0.19376,-0.31351 -0.0348,-0.56999 0.35346,-0.56999 1.11101,0 4.50102,-4.03062 4.50102,-5.35161 0,-0.15016 -0.45076,-0.514 -1.00149,-0.80874 -0.14233,-0.0762 -0.33995,-0.11929 -0.58084,-0.13332 z m -23.909654,2.39106 c 0.261104,0.0781 -0.194723,0.50767 -1.42937,1.27073 -0.968133,0.59834 -2.408232,1.08779 -3.200322,1.08779 -1.839386,0 -1.622699,-0.18728 1.756999,-1.51929 1.633438,-0.64377 2.611588,-0.91732 2.872693,-0.83923 z m 16.447054,7.60006 v 5.1e-4 c -0.4411,0.0659 -0.72807,0.34646 -0.85679,0.83871 -0.16191,0.61914 -1.196538,1.31905 -2.768825,1.87327 -1.380617,0.48665 -2.857429,1.10047 -3.28197,1.36426 -0.424541,0.26379 -2.161549,1.18628 -3.859713,2.05 -2.637382,1.34141 -2.824699,1.52222 -1.286226,1.24024 7.704501,-1.41211 16.807234,-6.75273 12.546004,-7.36079 -0.18107,-0.0258 -0.34544,-0.028 -0.49248,-0.006 z m -12.611113,0.48679 c 1.097227,-0.056 1.348092,0.39133 0.519865,1.21956 -0.411485,0.41148 -1.520763,0.90299 -2.465482,1.09193 -1.4991,0.29982 -1.694231,0.21917 -1.53169,-0.63201 0.120927,-0.63326 0.860016,-1.14218 2.106848,-1.45107 0.545123,-0.13505 1.004717,-0.20973 1.370459,-0.22841 z m -9.657808,2.50527 c -0.2539,0 -1.428856,1.91076 -2.61121,4.24574 -2.557603,5.05089 -3.075776,9.25233 -1.37356,11.13627 1.036321,1.14695 2.603708,1.43217 3.136243,0.57051 0.174921,-0.28303 -0.02956,-0.5147 -0.454753,-0.5147 -1.234126,0 -2.375565,-2.10948 -2.375565,-4.39095 0,-2.10369 1.859164,-7.56492 3.349666,-9.83971 0.434953,-0.66382 0.583079,-1.20716 0.329179,-1.20716 z" />
  </g>
</svg>