<?xml version="1.0" encoding="UTF-8" standalone="no"?>
<!-- Created with Inkscape (http://www.inkscape.org/) -->

<svg width="105.95847mm" height="167.33017mm" viewBox="0 0 105.95847 167.33017" version="1.1" id="svg1"
  xml:space="preserve" xmlns="http://www.w3.org/2000/svg" xmlns:svg="http://www.w3.org/2000/svg">
  <defs id="defs1" />
  <g id="layer3" style="display:inline" transform="translate(-57.025292,-56.352274)">
    <path style="fill:#000000"
      d="m 146.66271,202.37811 c -10.13964,9.92099 -19.65808,13.92318 -28.084,11.80841 -3.36981,-0.84577 -2.35948,-2.62215 1.49136,-2.62215 14.00569,0 29.00987,-15.08571 18.54281,-18.64357 -7.04197,-2.39364 -12.85886,-8.66673 -18.7156,-20.18342 -4.87484,-9.58588 -6.02387,-11.01304 -11.89613,-14.77576 -5.83785,-3.74066 -7.41138,-3.69013 -2.66045,0.0854 4.63505,3.68348 6.31872,5.88247 11.0207,14.39387 2.05486,3.71964 4.17888,7.03663 4.72004,7.37109 0.54116,0.33446 0.98393,1.39686 0.98393,2.3609 0,1.57958 4.61763,6.59999 9.38141,10.19972 0.99974,0.75545 3.49576,1.64631 5.54671,1.97968 14.58685,2.37103 -9.14688,13.88576 -30.55976,14.82648 -15.908972,0.69891 -22.362407,3.4677 -18.612838,7.98565 1.497213,1.80403 3.103083,0.93349 2.272199,-1.23176 -0.422963,-1.10222 -0.167794,-1.46754 0.800415,-1.14591 2.673784,0.88819 3.64566,5.86501 1.45774,7.46485 -7.776034,5.68598 -15.465724,-6.72025 -10.591989,-17.08868 2.448499,-5.20896 4.260923,-6.64255 15.494247,-12.2557 7.434666,-3.71501 8.158846,-4.35168 9.158706,-8.05204 1.21344,-4.49079 4.62112,-6.93184 8.42608,-6.03594 3.58943,0.84515 1.81653,-0.9897 -4.28172,-4.43134 -6.96609,-3.93142 -11.799946,-8.93258 -16.147048,-16.70593 -4.104135,-7.33888 -5.280007,-8.47324 -13.188121,-12.72261 -10.708259,-5.754 -13.255419,-9.24192 -10.070184,-13.78948 1.411425,-2.01509 1.334796,-2.37349 -1.008493,-4.71678 -2.765348,-2.76535 -3.121728,-4.69126 -1.447107,-7.82032 0.839671,-1.56894 0.729592,-2.43158 -0.480979,-3.76925 -1.546225,-1.70856 -2.090153,-3.97681 -1.776178,-7.40689 0.154994,-1.69326 4.365034,-3.48039 6.967119,-2.95748 1.627411,0.32704 1.620947,0.28966 -0.75637,-4.37331 -4.595262,-9.013342 -1.929312,-14.851653 11.550496,-25.295075 4.706314,-3.646195 5.225024,-8.050745 1.659743,-14.093447 -2.705047,-4.584712 -2.66842,-4.838037 0.581565,-4.022342 13.133381,3.296269 31.335297,24.02384 25.411387,28.937411 -4.2575,3.531369 -4.35792,3.528708 -7.702,-0.204064 -9.970386,-11.129275 -28.370851,-1.927445 -24.440128,12.222187 2.142562,7.7127 10.250032,14.70988 9.360605,8.07871 -0.446464,-3.32864 -0.107377,-4.38073 2.134436,-6.622539 3.189007,-3.189007 7.353711,-3.194405 6.827151,-0.0088 -0.90258,5.460419 -0.29599,9.924079 1.71901,12.649509 2.768306,3.74434 2.717676,3.99013 -0.82192,3.99013 -3.322184,0 -4.358331,0.9652 -3.144521,2.92918 0.57293,0.92702 1.021311,0.98776 1.505711,0.20397 0.37941,-0.61389 2.29998,-1.11616 4.267936,-1.11616 3.01436,0 3.46272,-0.27806 2.84581,-1.76486 -4.875666,-11.75059 -3.04435,-16.090258 12.48662,-29.589506 4.71029,-4.0941 5.09331,-6.154501 2.2414,-12.057275 -5.00198,-10.352897 9.3671,-0.879575 20.73819,13.672384 10.63913,13.615247 11.44781,29.126047 3.3978,65.171117 -4.46237,19.98089 -4.55466,23.781 -0.82332,33.90205 3.94025,10.73364 10.05524,-3.05458 9.18282,-6.80733 -0.45132,-1.94135 -0.70142,-10.15454 -0.55579,-18.25154 0.2048,-11.38648 -0.0839,-15.55625 -1.27415,-18.405 -1.86253,-4.45767 -0.20375,-4.95382 2.04212,-0.6108 1.87463,3.62514 2.0619,7.83031 0.98982,22.22681 -0.85207,11.44223 0.56816,18.88251 1.83714,9.62431 0.3485,-2.54259 1.83065,-7.46687 3.29367,-10.94284 1.61562,-3.83854 2.66003,-8.20317 2.66003,-11.11634 0,-4.75337 1.00967,-6.25258 2.17163,-3.22454 0.76514,1.99391 -0.80831,9.10647 -3.94514,17.83338 -2.64536,7.35963 -3.53257,13.02391 -2.51586,14.84687 1.27541,2.28681 -5.76222,16.27441 -9.66876,20.09671 z m -14.07023,-46.53299 c -4.46591,-17.09287 -16.22483,-32.01966 -25.22422,-32.01966 -6.47481,0 -4.29062,4.15939 5.71636,10.88577 6.13694,4.12507 10.06854,8.73974 15.69255,18.41895 5.50884,9.48101 5.60006,9.54592 3.81531,2.71494 z M 101.0581,140.18646 c -3.630536,-1.21018 -5.534207,-6.56051 -3.174016,-8.92069 4.573216,-4.57323 -14.231802,-21.24989 -21.39739,-18.97562 -3.586426,1.13829 -1.363553,3.76236 8.124431,9.59077 11.151778,6.85047 12.029531,7.60279 10.571522,9.0608 -0.748073,0.74807 -1.934304,0.33865 -3.983548,-1.37492 -6.137665,-5.13229 -15.400875,-8.38889 -16.911089,-5.94531 -0.975908,1.57905 1.001285,3.04416 9.556468,7.08139 11.431449,5.39456 15.235706,8.57426 14.372626,12.01303 -0.64749,2.57983 -0.64749,2.57983 1.70455,0.22779 1.520896,-1.5209 1.922476,-2.49523 1.136446,-2.75724 z m 18.44404,-17.79631 c -5.01619,-7.65567 2.41874,-16.86205 8.61419,-10.66661 2.26755,2.26755 2.6637,6.98037 0.75637,8.99819 -1.04415,1.10463 -0.83126,1.11192 1.2398,0.0424 12.31627,-6.36012 8.06723,-27.250144 -5.5259,-27.167571 -14.85052,0.09021 -20.77648,17.472941 -9.44632,27.709061 4.52035,4.08387 6.67873,4.62052 4.36186,1.08451 z m -54.310035,89.30702 c -13.365388,-2.91701 -9.622486,-20.14348 6.104918,-28.09749 9.952984,-5.03364 10.521335,-5.54286 12.088905,-10.8311 1.995567,-6.73211 10.243305,-7.01519 17.430722,-0.59827 3.36538,3.00461 3.36538,3.00461 1.71787,6.47647 -0.90613,1.90952 -1.64751,4.1067 -1.64751,4.88261 0,4.05332 -3.622206,4.6986 -9.742848,1.73565 -4.892521,-2.36843 -7.72218,-2.24414 -8.223929,0.36124 -0.238174,1.23674 0.761071,2.23292 3.306677,3.29654 3.545354,1.48135 4.043281,3.48018 0.866944,3.48018 -0.864714,0 -3.122832,1.36146 -5.018039,3.02548 -2.015509,1.76964 -4.687104,3.0778 -6.436219,3.15154 -7.910721,0.33348 -12.03298,3.83294 -8.925603,7.5771 1.153478,1.38985 1.434941,1.35839 2.644373,-0.29561 1.170962,-1.60139 1.482052,-1.64767 2.306727,-0.34319 1.309195,2.07089 1.219131,4.39914 -0.226076,5.84435 -1.294839,1.29484 -1.738034,1.31857 -6.246912,0.3345 z"
      id="path5" />
  </g>
</svg>