<svg viewBox="0 0 49.975956 64.411629" version="1.1" xml:space="preserve" width="49.975956" height="64.411629"
  xmlns="http://www.w3.org/2000/svg" xmlns:svg="http://www.w3.org/2000/svg">
  <defs>
    <style>
      text {
        font-family: 'LXGW WenKai TC', sans-serif;
        font-size: 20px;
        fill: #ffffff;
      }
    </style>
  </defs>
  <g>
    <path
      d="m 24.474177,0 c 0,0 5.57635,8.77641 12.11907,12.7897 0,0 -1.60673,4.06884 -0.0433,6.42548 2.00382,3.02048 5.11113,1.81549 5.11113,1.81549 0,0 2.38155,8.35448 8.31488,11.68446 0,0 -7.48371,4.4278 -7.65322,10.48734 0,0 -3.93937,-0.24345 -5.72423,1.89838 -1.78485,2.14182 -1.60637,6.02892 0.35698,6.74286 0,0 -10.65314,7.2746 -12.04144,12.56792 0,0 -5.267948,-9.00718 -12.850959,-12.85096 0,0 3.345414,-1.83444 1.858787,-5.35457 C 12.501198,42.84214 8.981811,43.11957 8.253645,43.29806 7.518049,38.62835 4.91098,34.77406 0,32.10574 3.999075,29.04611 7.521764,26.04249 7.905642,21.49219 c -0.713941,0 3.018466,0.51358 5.071527,-2.1112 1.687315,-2.15718 1.775888,-6.04686 0.169518,-7.37019 C 18.186051,8.54193 21.014275,6.16408 24.474187,0 Z" />
    <text x="14.991302" y="37.879372">籠</text>
  </g>
</svg>