<?xml version="1.0" encoding="UTF-8" standalone="no"?>
<svg
   version="1.0"
   width="2599.8652pt"
   height="1571.754pt"
   viewBox="0 0 2599.8653 1571.754"
   preserveAspectRatio="xMidYMid"
   id="svg2"
   sodipodi:docname="eye1.svg"
   inkscape:export-filename="eye1.svg"
   inkscape:export-xdpi="96"
   inkscape:export-ydpi="96"
   inkscape:version="1.4 (86a8ad7, 2024-10-11)"
   xmlns:inkscape="http://www.inkscape.org/namespaces/inkscape"
   xmlns:sodipodi="http://sodipodi.sourceforge.net/DTD/sodipodi-0.dtd"
   xmlns="http://www.w3.org/2000/svg"
   xmlns:svg="http://www.w3.org/2000/svg">
  <sodipodi:namedview
     id="namedview1"
     pagecolor="#ffffff"
     bordercolor="#000000"
     borderopacity="0.25"
     inkscape:showpageshadow="2"
     inkscape:pageopacity="0.0"
     inkscape:pagecheckerboard="0"
     inkscape:deskcolor="#d1d1d1"
     inkscape:document-units="pt"
     inkscape:zoom="0.10640978"
     inkscape:cx="1508.32"
     inkscape:cy="817.59402"
     inkscape:window-width="1128"
     inkscape:window-height="690"
     inkscape:window-x="-6"
     inkscape:window-y="33"
     inkscape:window-maximized="1"
     inkscape:current-layer="svg2" />
  <defs
     id="defs2" />
  <metadata
     id="metadata1">
Created by potrace 1.15, written by Peter Selinger 2001-2017
</metadata>
  <g
     transform="matrix(0.05950997,0,0,-0.05950654,919.01103,983.0286)"
     fill="#ffffff"
     stroke="none"
     id="g2"
     style="fill:#ffffff;stroke:#ffffff;stroke-width:1.68044">
    <path
       d="M 6330,6609 C 4612,6507 2812,5725 1130,4349 794,4075 445,3756 174,3476 L 1,3298 92,3199 C 236,3043 615,2682 895,2435 2289,1203 3740,423 5170,136 5656,39 5986,6 6490,6 c 383,-1 517,7 845,49 1372,176 2726,781 3982,1781 517,411 1037,915 1406,1362 l 78,93 -27,32 c -463,555 -984,1081 -1491,1504 C 9746,6110 8072,6712 6330,6609 Z m 464,-584 c 362,-42 679,-139 1002,-304 C 8753,5230 9334,4257 9297,3210 9275,2625 9074,2085 8704,1620 8617,1511 8390,1284 8280,1196 7877,874 7404,671 6870,589 c -214,-33 -590,-33 -810,0 -560,83 -1055,305 -1470,656 -119,101 -310,302 -403,423 -298,389 -481,840 -542,1332 -30,243 -15,583 35,831 237,1162 1221,2047 2440,2193 160,19 514,20 674,1 z"
       id="path1"
       style="fill:#ffffff;stroke:#ffffff;stroke-width:1.68044" />
    <path
       d="m 6325,4819 c -557,-58 -1040,-395 -1274,-889 -180,-380 -196,-802 -47,-1188 166,-430 522,-771 959,-917 203,-68 276,-79 527,-79 212,0 232,1 345,28 147,34 230,64 360,126 437,210 750,611 852,1090 28,130 25,469 -4,600 -58,259 -165,475 -334,677 -331,394 -863,606 -1384,552 z"
       id="path2"
       style="fill:#ffffff;stroke:#ffffff;stroke-width:1.68044" />
  </g>
</svg>
