<?xml version="1.0" encoding="UTF-8"?>
<svg id="a" xmlns="http://www.w3.org/2000/svg" viewBox="0 0 800 600.7">
  <path
    d="M407.96,398.73c-4.78,12.67-8.72,25.1-14.06,36.9-13.93,30.72-32.43,58.24-59.53,79.06-24.17,18.57-51.33,28.4-82.12,25.29-21.63-2.18-39.98-11.83-55.29-27.18-35.29-35.37-40.72-92.95-12.49-132.94,7.11-10.06,15.71-18.64,26.8-24.41,.99-.52,1.83-1.33,3.57-2.62-6.79-1.23-12.65-2.19-18.46-3.37-45.18-9.18-73.29-36.68-80.74-82.3-5.12-31.37-16.16-59.74-33.68-85.98-7.27-10.88-13.44-22.42-16.15-35.42-7.62-36.53,11.72-67.53,48.39-77.28,20-5.32,40.22-4.16,60.29-.53,43.21,7.82,80.55,27.87,113.69,56.06,53.13,45.19,87.72,102.76,111.06,167.73,1.39,3.88,2.84,7.73,4.14,11.64,1.23,3.7,2.29,7.46,3.9,12.76,1.19-3.07,1.94-4.68,2.44-6.36,14.28-47.48,35.61-91.48,65.59-131.06,30.44-40.17,66.99-73.22,113.3-94.33,30.3-13.81,62.06-21.51,95.5-18.83,28.34,2.27,51.34,14.11,62.86,41.87,6.77,16.31,5.49,33.06-.9,49.24-3.14,7.94-6.86,15.86-11.63,22.9-18.45,27.23-29.32,56.98-34.42,89.52-4.59,29.29-19.39,53.03-45.96,68.06-14.08,7.97-29.43,12.11-45.4,14.19-2.33,.3-4.63,.83-7.87,1.43,5.25,3.68,9.96,6.46,14.07,9.94,21.54,18.22,32.47,41.86,33.81,69.75,1.58,32.84-9.23,61.19-33.41,83.77-15.58,14.54-34.45,22.3-55.72,23.87-39.57,2.93-70.46-14.67-96.68-42.07-25.91-27.07-42.98-59.34-53.46-95.2-.39-1.35-.92-2.66-1.43-4.1Zm96.67-43.93l-.2-1.31c5.51-1.53,10.94-3.55,16.55-4.51,13.87-2.36,27.87-3.97,41.74-6.36,43.04-7.42,68.2-42.48,60.75-84.17-5.04-28.23-26.12-53.9-59.45-56.87-22.8-2.03-43.48,4.25-61.81,17.11-46.36,32.54-73.8,77.59-83.26,133.04-7.44,43.59,7.88,79.23,43.23,105.58,19.6,14.6,41.93,21.44,66.53,16.3,30.87-6.45,50.21-35.5,43.02-65.62-6.45-27.02-24.36-43.49-51.18-50.24-5.23-1.31-10.61-1.99-15.92-2.96Zm-192.03-2.09l-.33,1.94c-.47,.18-.93,.45-1.42,.51-1.36,.18-2.74,.24-4.1,.4-16.99,2.02-32.28,7.85-44.96,19.73-28.19,26.38-25.6,70.18,5.64,90.39,17.49,11.32,36.54,11.85,56.03,6.27,41.38-11.85,84.22-55.32,72.78-120.68-5.53-31.57-18.76-59.85-36.85-86-15.57-22.51-34.5-41.56-59.33-53.76-18.47-9.07-38.01-13.46-58.49-8.26-28.85,7.32-49.36,33.78-50.54,64.37-1.3,33.75,15.87,60.65,46.6,70.48,12.63,4.04,26.18,5.2,39.31,7.71,11.89,2.27,23.77,4.6,35.66,6.91Z" />
</svg>