<svg xmlns="http://www.w3.org/2000/svg" viewBox="0 0 1280 1280">
  <defs>
    <style>
      .cls-1 {
        fill: #0d0d0d;
        stroke-width: 4px;
        stroke: #0d0d0d;
      }
    </style>
  </defs>
  <g class="cls-1">
    <path d="M0,115.5V231H231V0H0Zm182,0V182H49V49H182Z" />
    <path
      d="M273.8,136.7l-.3,136.8-136.7.3L0,274V1280H49V733h88v319H323l-.2-24.3-.3-24.2-68.2-.3L186,1003V733l68.3-.2,68.2-.3v-322l-92.7-.3L137,410V596h49V459l43.8.2,43.7.3.3,112.2L274,684H49V323l136.8-.2,136.7-.3.3-136.8L323,49H684v88H410l.3,92.7.2,92.8h322l.3-68.3L733,186h270l.2,68.2.3,68.3,24.3.3,24.2.2V137H733V49h547V0H274ZM684,230v44l-112.2-.2-112.3-.3-.3-43.8L459,186H684Z" />
    <path
      d="M410.6,410.9c-.3.5-.5,52.6-.3,115.7l.2,114.9h231v-231l-115.2-.2C459.6,410.1,410.9,410.4,410.6,410.9ZM593,526v67H459V459H593Z" />

  </g>
</svg>