<svg xmlns="http://www.w3.org/2000/svg" viewBox="0 0 727.44 506.6">
  <defs>
    <style>
      .wing {
        fill: black;
        stroke: black;
        stroke-width: 6px;
        stroke-miterlimit: 10;
        fill-rule: evenodd;
        paint-order: stroke fill markers;
        transform-origin: 50%;
      }

      .body {
        transform-origin: 50%;
        animation: shrink 3s ease-in-out infinite;
        transform: scale(0.7);

        @keyframes shrink {
          0% {
            transform: scale(1);
          }

          50% {
            transform: scale(0);
          }

          100% {
            transform: scale(1);
          }
        }
      }

      .left {
        animation: left-flap 3s ease-in-out infinite;
      }

      .right {
        animation: right-flap 3s ease-in-out infinite;
      }

      @keyframes left-flap {
        0% {
          transform: rotateY(-60deg);
        }

        50% {
          transform: rotateY(50deg);
        }

        100% {
          transform: rotateY(-60deg);
        }
      }

      @keyframes right-flap {
        0% {
          transform: rotateY(60deg);
        }

        50% {
          transform: rotateY(-50deg);
        }

        100% {
          transform: rotateY(60deg);
        }
      }
    </style>
  </defs>
  <g>
    <path class="body"
      d="M384,274.9a12.13,12.13,0,0,1-1.4.5c-.7,4.6-1.4,9.3-2.2,13.9-.8,3.2-2.1,6.5-2.1,9.7a288,288,0,0,1-2.1,33.4c-1.4,11-.4,22.3.2,33.5,1,20.7.9,41.2-6.3,61a40.29,40.29,0,0,1-3,6.7,15.17,15.17,0,0,1-3.1,3.1c-1-1.1-2.4-2-3-3.3a99.84,99.84,0,0,1-4.3-11.2c-5.9-19.7-5.8-39.8-4.5-60,.7-12.1,1.3-24.4-1-36.5a72.61,72.61,0,0,1-.8-19.2c.9-11.4-2.6-21.8-5.3-32.5l-.3-.3c-.1-1-.2-2-.3-3.1l-4.7-22.4c-1.7-12.7-1.1-25.3,5.1-36.9,2.9-5.4,6.9-10.1,10.9-16a33,33,0,0,1-4.2-3.4c-6.2-6.6-4.4-14.9,3.9-18.5,4.5-2,4.7-2.6,3.1-7.2-4.8-14.1-13.3-26.1-22-37.9-9-12.4-18.1-24.8-23.7-39.2-2.2-5.8-3.3-11.7-.2-17.6a18.21,18.21,0,0,1,1.3-1.6c1.1,18.6,10.2,33.1,19.5,47.7,7.8,12.1,15.5,24.3,22.7,36.8,2.5,4.4,3.5,9.6,5.5,14.4.4,1.1,1.8,1.8,2.6,2.7.8-.9,2.1-1.6,2.4-2.6,3.9-16,12.9-29.4,22.2-42.6,8.7-12.3,17.3-24.7,22.3-39.1,1.8-5.3,2.5-10.9,3.9-16.8a14.76,14.76,0,0,1,2,13.9,87,87,0,0,1-7.9,17.9c-7,11.1-14.6,21.8-22.1,32.5-7.2,10.3-14,20.7-17.6,32.9-.7,2.4-1,4.1,2.1,5.4,10.9,4.7,12,13.4,3,21.2-.7.6-1.3,1.2-2.1,1.9.3.5.4,1.1.8,1.4,10.4,8.5,14.5,20.1,15.8,32.8a91.07,91.07,0,0,1-.2,16.5" />
    <path class="wing right"
      d="M386.94,291.4c12,8,20.5,19.1,26.8,31.8,10.5,21.1,16.4,43.5,20.1,66.6a19.22,19.22,0,0,1,0,2.4c-2.3-6.2-4-12.5-5.7-18.8-6.8-25.8-17-49.9-33.8-70.9-3-3.8-6.5-7.4-9.7-11m9.6-22.9c15-.8,30.1-2.2,45.1-2,32.9.6,65.1,5.4,96.1,16.8.8.3,1.7.5,3,.9a21.64,21.64,0,0,0-.5-3.2c-5.2-17.1-17.7-25.2-34.7-27.5-26.1-3.6-52.4-2.8-78.6-1.8-9.9.4-19.7.9-30.8,1.4,6.1-3.5,11.3-6.8,16.7-9.5,19.2-9.3,39.6-14.3,60.9-16,27.3-2.1,53.6,2.3,79.4,10.6,15.8,5,31.5,10.6,47.2,15.9a51.24,51.24,0,0,0,6.7,1.9c3.2.6,6.4-.4,7.5-3.4a10.26,10.26,0,0,0-.5-7.5c-3.4-6.1-9.6-9.5-15.7-12-11.9-4.8-24.2-8.8-36.3-13-2.7-.9-5.4-1.5-8-3.2,1.1.1,2.2.2,3.3.4,11.9,2,23.8,2.4,35.6-.6a28.61,28.61,0,0,0,8.7-4c3.1-2.1,3.3-5.1.3-7.4s-6.4-4.6-10-5.5c-12.3-2.8-24.6-5.9-37-7.2-14.5-1.5-29.3-1.4-43.9-1.8a101.9,101.9,0,0,0-13.5.8,8.17,8.17,0,0,0-4.2,1.7c-12.8,10.8-27.8,16.9-43.5,21.8-13.5,4.2-26.7,9.4-40,14.1-.4.2-.9.2-1.7-.4,4-2.2,7.9-4.6,11.9-6.7,22.4-11.7,44.4-24.1,64.2-39.9,13.9-11,26.9-22.9,36.5-38,4-6.2,8-12.5,7.8-20.2a19.14,19.14,0,0,0-2.1-6.8c-.9-2-2.4-3.7-3.5-5.5-4.5-7.4-10-9.8-18.6-7.9-11.3,2.6-20.8,8.7-29.6,16.1-18.7,15.7-33.5,34.8-47.9,54.4-11.3,15.4-22.1,31-33.2,46.5-1,1.4-2.1,2.7-3.2,4-.3-.2-.7-.3-1-.5.5-2.2,1-4.4,1.6-6.5,4.6-14.9,12.2-28.3,20.5-41.4a408.08,408.08,0,0,1,65.9-79.4C507,67,542.14,41.3,581.74,22c20.7-10.1,42.2-18,65.2-20.9,21.7-2.8,42.7-.6,61.9,10.9,12.2,7.3,18.5,17.8,18.6,32.4.1,15.5-3,30-13.3,41.7-5.5,6.2-9.3,11.6-9.2,20.6.1,10.1-6.4,17.6-15.3,22.6-1.8,1-2.5,2.1-2,4.3,3.4,14.2-1.8,26.8-14.3,33.9-3.5,2-4.3,3.7-3,7.5,4.5,13.9-4.2,29.2-16,36.1-1.9,1.1-3.6,1.7-2.6,4.6,4.9,13.9.9,26.2-7.8,37.2-14.5,18.4-33.5,24.3-56.1,19.3-6.7-1.5-13.2-3.5-20.1-4.8,1.8,1.1,3.7,2.2,5.5,3.3,16.6,9.6,31,21.7,42,37.5,3.7,5.3,6.2,11.5,9.2,17.3,1.2,2.4.3,3.8-2.2,4.6a26.55,26.55,0,0,0-5.9,2.8c-5.9,4.2-6.4,9.9-1.7,15.5a50.16,50.16,0,0,1,10.9,22.3c.6,2.8-.2,4.1-2.9,4.8-3.1.8-6.2,1.7-9.2,2.8-12.7,4.7-16.1,20-12.4,29.6a24.21,24.21,0,0,0,3.6,5.4c1.5,1.9,1.6,3.8-.3,5a28.81,28.81,0,0,1-7.8,4c-5.7,1.5-11.9,1.6-15.5,7.4-4.2,7-4.7,14.7-3.3,22.4,2.3,13.1,9.4,23.9,17.3,34.1,5.2,6.7,10.8,13,16.8,20.4-7-1.2-12.6-3.4-16.6-7.7-5.6-6-10.4-12.7-15.5-19.1-2.8-3.5-5.2-7.4-8.3-10.5-5.5-5.5-13.2-5.5-18.7-.1-3.3,3.3-5.8,7.5-8.7,11.2-2.5,3.3-4.5,7-7.4,9.8-7,6.6-15.3,6.7-23.8,3.1-4.8-2.1-9.3-4.9-14-7.3a11.69,11.69,0,0,0-12.1.4,45.85,45.85,0,0,0-5.2,3.3c-8.1,5.8-16.3,4.9-24.2,0-9.2-5.7-15.5-13.8-17.8-24.6-4-18.4-7.6-36.9-15.5-54.1-4.1-9.1-9.4-17.7-14.4-26.3a6.41,6.41,0,0,0-4.7-2.6c-4.1-.2-6.3-2.3-6.7-6.1s-2.2-6.5-5.1-9a9.18,9.18,0,0,1-3-6.3c.6-8.4-1.8-16-5-23.5a61.92,61.92,0,0,1-4.3-31,34.4,34.4,0,0,1,3.5,3c9.1,9.5,15.8,20.6,21.8,32.1,9.4,18.1,15.8,37.4,21.9,56.8,1.4,4.6,2.9,9.2,4.6,14.4,1-1.6,1.5-2.4,2-3.3,4-6.4,10.4-7.7,16.5-3.1a35.24,35.24,0,0,1,5.2,5c2.3,2.8,4.4,5.8,6.6,8.8a100.56,100.56,0,0,0-3.3-15.8c-7.7-25.9-15.5-51.8-23.2-77.6-.4-1.3,0-2.8.1-4.1,7.7,21.3,15.2,42.7,23.3,63.8,2.4,6.2,6.4,12,10.5,17.3,3.2,4.2,7.5,3.2,8.9-1.9a31.41,31.41,0,0,0,.6-13.3c-2.9-16.1-9.4-31-16.7-45.5-.7-1.3-1.3-2.7-2.4-5a11.47,11.47,0,0,1,1.7,1.1c12.3,17.2,23.7,34.9,33.1,53.9a29.9,29.9,0,0,0,4.9,6.9c2.1,2.2,4.8,3.6,8,2.5,3.5-1.1,5.1-3.7,5.8-7.1a19.64,19.64,0,0,0-2.5-13.8c-7.3-12.1-14.5-24.3-22-36.3-3.1-5-6.8-9.5-10.7-14.8-3.8,5.5-8.8,6.8-14.3,6a31.7,31.7,0,0,1-9.4-3.2c-6.4-3.3-12.5-7-18.8-10.6a21.83,21.83,0,0,0-2.2-2.1c-11-8.4-22.1-16.8-33.2-25.3-2.3-1.7-4.4-3.6-6.6-5.4l.6-.8a32.36,32.36,0,0,1,3.6,2c13.3,8.8,26.6,17.7,40,26.4,6.3,4,12.7,7.8,19.4,11.2a24.72,24.72,0,0,0,9.6,2.4c4.8.3,8-3.2,7.2-7.9-.6-3.7-2.2-7.3-3.5-10.9a37.45,37.45,0,0,0-2.2-4.5,4.67,4.67,0,0,0,1-.5c5.1,5.5,9.5,11.2,9.8,19.3a11.08,11.08,0,0,0,2.5,6c6.6,7.9,13.5,15.6,20.3,23.3,5.3,6,10.6,11.9,16,17.7,2.7,2.9,6.2,3,9.7,1.6s5.1-4.5,5.4-8.2c.3-4.8-2-8.5-5.1-11.7-11.2-11.2-22.6-22.2-33.9-33.2-1.9-1.8-4-3.4-5.9-5.1a1.9,1.9,0,0,1,2,.1c11.8,9.2,23.5,18.4,35.3,27.5,3.8,3,7.6,6.2,11.8,8.6a13.21,13.21,0,0,0,15.7-2.2c3.7-3.7,3.3-8.4-.9-11.5-3.9-2.8-7.7-5.6-11.6-8.3q-18-12.45-36.2-24.9c-2.8-1.9-6-3.4-8.9-5.1l.5-.9c1.2.5,2.3,1,3.5,1.4,11.4,4,22.7,8.2,34.3,11.7,3.5,1.1,7.7.7,11.4,0,4.6-.9,5.7-5,2.5-8.4a37.21,37.21,0,0,0-6.4-5.5c-13.4-9-28.2-14.8-43.7-19.1a8.82,8.82,0,0,0-2.3,0c0,.7.1,1.2.1,1.7,1.3,13.7-4.7,21.6-18.5,22.7a98.64,98.64,0,0,1-23-1.1c-20.7-3.4-40.1-11.3-59.8-18.1-1.4-.5-2.7-1.1-4-1.7a7.42,7.42,0,0,1,4.2.1c21,4.7,41.9,9.8,62.9,14,6.9,1.4,14.3.6,21.5.5a16,16,0,0,0,6.3-1.7c5.2-2.4,7.1-7.1,6.5-14.4-.4-5.4-4.9-4.6-8-5.3m64.3-139.6.1-.9a3.54,3.54,0,0,1,1.1-.3c10.1.9,20.2,1.9,30.3,2.6,9.5.6,19,1,28.5.9,3.5,0,7.1-1.3,10.3-2.8,4.8-2.4,5.4-7.2,1.8-11.2a21.35,21.35,0,0,0-15.41-7c-9.9-.4-19.79-.9-29.59.1-12.2,1.3-24.3,4.1-36.5,6.2-2.5.4-3.5,2-4.1,4.4a77.29,77.29,0,0,1-3.1,10.7c-5.2,13.4-13,25.1-22.3,35.9-2.5,3-5.2,5.9-8.3,9.5,2.7-.5,4.4-.8,6.1-1.1a154.35,154.35,0,0,1,45-1.9c7.8.9,15.6,2.2,23.4,2.1,10,0,19.8-1.8,28.2-7.9,5.9-4.3,7.3-11.3,2.6-16.8a38.49,38.49,0,0,0-10.5-8.8c-12.7-7-26.5-10.5-40.7-12.5-2.5-.4-4.7-.9-6.9-1.2Zm-39.2-49.4c.8.1,1.5.1,2.3.2,9.4.9,13.8,5,15.5,14.2a20.31,20.31,0,0,0,2.6,6.7c2.4,4.1,5.1,7.9,8.2,12.5-.5.1.1.1.7-.1a244.11,244.11,0,0,1,77.4-9.6,33.93,33.93,0,0,0,9.5-1.2c6.4-1.6,7.7-6.4,3.1-11.1-5.4-5.6-12.4-7.6-19.9-8.2-11.1-.8-22.1.5-33,2.8-7.6,1.6-15.1,3.7-23.8,5.9a16.09,16.09,0,0,1,3-1.9c7.6-2.9,15-6.2,22.8-8.6,11.5-3.4,23.2-5.9,34.7-9.1a46.4,46.4,0,0,0,10.4-3.9c4.4-2.6,4.1-6.8-.6-8.7a30.31,30.31,0,0,0-9-2.1c-9.2-.9-17.9,1.2-26.4,4.5-19.4,7.5-37.6,17.3-55.1,28.5a22.07,22.07,0,0,1-2.7,1.2l-.4-1c19-14.8,38.1-29.3,60.4-39.2-13.9-1.9-27.5-1.9-40.7,3.7-14.2,6.2-26.4,15.4-39,24.5Zm6.6,376.6a16.67,16.67,0,0,0,.1-1.9c-4-12.1-9.4-23.4-19.3-31.9a13.71,13.71,0,0,0-7.1-3.3c-6-.8-10.9,4.4-11.6,12.2a96.15,96.15,0,0,0,0,14.2c.2,3.3,1.3,6.6,2,10,2.5-3.9,4.4-7.6,6.9-10.7,3.2-3.9,6.5-4.5,11-2.3a51.8,51.8,0,0,1,8.4,5.3c3.2,2.6,6.2,5.5,9.6,8.4Zm65.5-61.2c-8.2-6.9-17-11.4-27.5-11.3-7.4,0-12.8,5-12.5,11.4.6,11.7,7.1,20.8,13.5,30,0-4.5-.1-8.6,0-12.6.3-8.3,3.5-12.7,11.4-14.9,4.7-1.3,9.6-1.7,15.1-2.6Zm-104.8,64.9c-.1.2.1,0,.1-.2-3.4-14-10.1-26.1-21.3-35.3-3.3-2.7-6.6-1.4-8.2,2.8-2.5,6.2-2.2,12.6-1.3,19,.7,4.6,2.3,9,3.7,14.2,4.7-7.4,8.1-9.6,13.2-7.7,4.7,1.9,9.1,4.8,13.8,7.2Zm127.7-103.2c-9.4-4.5-18.6-8-28.8-5.7-7.4,1.7-11,7.5-9.1,14.8,2.8,10.5,9.5,18.4,18.2,25.8-1.3-5-2.7-9.3-3.5-13.6-1.7-9.7,1.1-14.3,10.4-17.7,4-1.4,8.1-2.3,12.8-3.6Zm-52.8,74a6.47,6.47,0,0,0,.8-.9c-4-4.2-7.8-8.7-12.2-12.5a34.9,34.9,0,0,0-11-6.8c-8.3-3-13.8,1.2-14.3,10-.5,9.6,2.5,18.3,6,27.9.6-3.7.9-6.5,1.5-9.2,1.8-9.5,6.9-13,16.6-11.3C543,436.8,547.24,437.9,551.54,438.9Zm60.2-115.4c-4.5-3.8-11.3-4.8-18.4-3-10.5,2.7-13.2,9.3-7.2,18.4,5.2,7.9,12.5,13.5,20,19,.8.6,1.9.7,4,1.4-1.2-2.6-1.7-4.2-2.5-5.5-2.2-3.3-4.7-6.4-7.1-9.6-4.4-6-3.8-10.4,2.2-14.8,2.8-2.1,5.8-3.8,9-5.9Zm-5.8-10.2c-5.2-10.5-11-20.1-22-25.2-1.8-.8-4.1-.5-6.1-.6-.1,2-.7,4-.3,5.8,2.5,11.1,18.9,20.6,26.8,20.8.2,0,.5-.2,1.6-.8Z" />
    <path class="wing left"
      d="M340.5,291.4c-12,8-20.5,19.1-26.8,31.8-10.5,21.1-16.4,43.5-20.1,66.6a19.22,19.22,0,0,0,0,2.4c2.3-6.2,4-12.5,5.7-18.8,6.8-25.8,17-49.9,33.8-70.9,3-3.8,6.5-7.4,9.7-11m-9.6-22.9c-15-.8-30.1-2.2-45.1-2-32.9.6-65.1,5.4-96.1,16.8-.8.3-1.7.5-3,.9a21.64,21.64,0,0,1,.5-3.2c5.2-17.1,17.7-25.2,34.7-27.5,26.1-3.6,52.4-2.8,78.6-1.8,9.9.4,19.7.9,30.8,1.4-6.1-3.5-11.3-6.8-16.7-9.5-19.2-9.3-39.6-14.3-60.9-16-27.3-2.1-53.6,2.3-79.4,10.6-15.8,5-31.5,10.6-47.2,15.9a51.24,51.24,0,0,1-6.7,1.9c-3.2.6-6.4-.4-7.5-3.4a10.26,10.26,0,0,1,.5-7.5c3.4-6.1,9.6-9.5,15.7-12,11.9-4.8,24.2-8.8,36.3-13,2.7-.9,5.4-1.5,8-3.2-1.1.1-2.2.2-3.3.4-11.9,2-23.8,2.4-35.6-.6a28.61,28.61,0,0,1-8.7-4c-3.1-2.1-3.3-5.1-.3-7.4s6.4-4.6,10-5.5c12.3-2.8,24.6-5.9,37-7.2,14.5-1.5,29.3-1.4,43.9-1.8a101.9,101.9,0,0,1,13.5.8,8.17,8.17,0,0,1,4.2,1.7c12.8,10.8,27.8,16.9,43.5,21.8,13.5,4.2,26.7,9.4,40,14.1.4.2.9.2,1.7-.4-4-2.2-7.9-4.6-11.9-6.7-22.4-11.7-44.4-24.1-64.2-39.9-13.9-11-26.9-22.9-36.5-38-4-6.2-8-12.5-7.8-20.2a19.14,19.14,0,0,1,2.1-6.8c.9-2,2.4-3.7,3.5-5.5,4.5-7.4,10-9.8,18.6-7.9,11.3,2.6,20.8,8.7,29.6,16.1,18.7,15.7,33.5,34.8,47.9,54.4,11.3,15.4,22.1,31,33.2,46.5,1,1.4,2.1,2.7,3.2,4,.3-.2.7-.3,1-.5-.5-2.2-1-4.4-1.6-6.5-4.6-14.9-12.2-28.3-20.5-41.4a408.08,408.08,0,0,0-65.9-79.4C220.4,67,185.3,41.3,145.7,22,125,11.9,103.5,4,80.5,1.1,58.8-1.7,37.8.5,18.6,12,6.4,19.3.1,29.8,0,44.4c-.1,15.5,3,30,13.3,41.7,5.5,6.2,9.3,11.6,9.2,20.6-.1,10.1,6.4,17.6,15.3,22.6,1.8,1,2.5,2.1,2,4.3-3.4,14.2,1.8,26.8,14.3,33.9,3.5,2,4.3,3.7,3,7.5-4.5,13.9,4.2,29.2,16,36.1,1.9,1.1,3.6,1.7,2.6,4.6-4.9,13.9-.9,26.2,7.8,37.2,14.5,18.4,33.5,24.3,56.1,19.3,6.7-1.5,13.2-3.5,20.1-4.8-1.8,1.1-3.7,2.2-5.5,3.3-16.6,9.6-31,21.7-42,37.5-3.7,5.3-6.2,11.5-9.2,17.3-1.2,2.4-.3,3.8,2.2,4.6a26.55,26.55,0,0,1,5.9,2.8c5.9,4.2,6.4,9.9,1.7,15.5a50.16,50.16,0,0,0-10.9,22.3c-.6,2.8.2,4.1,2.9,4.8,3.1.8,6.2,1.7,9.2,2.8,12.7,4.7,16.1,20,12.4,29.6a24.21,24.21,0,0,1-3.6,5.4c-1.5,1.9-1.6,3.8.3,5a28.81,28.81,0,0,0,7.8,4c5.7,1.5,11.9,1.6,15.5,7.4,4.2,7,4.7,14.7,3.3,22.4-2.3,13.1-9.4,23.9-17.3,34.1-5.2,6.7-10.8,13-16.8,20.4,7-1.2,12.6-3.4,16.6-7.7,5.6-6,10.4-12.7,15.5-19.1,2.8-3.5,5.2-7.4,8.3-10.5,5.5-5.5,13.2-5.5,18.7-.1,3.3,3.3,5.8,7.5,8.7,11.2,2.5,3.3,4.5,7,7.4,9.8,7,6.6,15.3,6.7,23.8,3.1,4.8-2.1,9.3-4.9,14-7.3a11.69,11.69,0,0,1,12.1.4,45.85,45.85,0,0,1,5.2,3.3c8.1,5.8,16.3,4.9,24.2,0,9.2-5.7,15.5-13.8,17.8-24.6,4-18.4,7.6-36.9,15.5-54.1,4.1-9.1,9.4-17.7,14.4-26.3a6.41,6.41,0,0,1,4.7-2.6c4.1-.2,6.3-2.3,6.7-6.1s2.2-6.5,5.1-9a9.18,9.18,0,0,0,3-6.3c-.6-8.4,1.8-16,5-23.5a61.92,61.92,0,0,0,4.3-31,34.4,34.4,0,0,0-3.5,3c-9.1,9.5-15.8,20.6-21.8,32.1-9.4,18.1-15.8,37.4-21.9,56.8-1.4,4.6-2.9,9.2-4.6,14.4-1-1.6-1.5-2.4-2-3.3-4-6.4-10.4-7.7-16.5-3.1a35.24,35.24,0,0,0-5.2,5c-2.3,2.8-4.4,5.8-6.6,8.8a100.56,100.56,0,0,1,3.3-15.8c7.7-25.9,15.5-51.8,23.2-77.6.4-1.3,0-2.8-.1-4.1-7.7,21.3-15.2,42.7-23.3,63.8-2.4,6.2-6.4,12-10.5,17.3-3.2,4.2-7.5,3.2-8.9-1.9a31.41,31.41,0,0,1-.6-13.3c2.9-16.1,9.4-31,16.7-45.5.7-1.3,1.3-2.7,2.4-5a11.47,11.47,0,0,0-1.7,1.1c-12.3,17.2-23.7,34.9-33.1,53.9a29.9,29.9,0,0,1-4.9,6.9c-2.1,2.2-4.8,3.6-8,2.5-3.5-1.1-5.1-3.7-5.8-7.1a19.64,19.64,0,0,1,2.5-13.8c7.3-12.1,14.5-24.3,22-36.3,3.1-5,6.8-9.5,10.7-14.8,3.8,5.5,8.8,6.8,14.3,6a31.7,31.7,0,0,0,9.4-3.2c6.4-3.3,12.5-7,18.8-10.6a21.83,21.83,0,0,1,2.2-2.1c11-8.4,22.1-16.8,33.2-25.3,2.3-1.7,4.4-3.6,6.6-5.4l-.6-.8a32.36,32.36,0,0,0-3.6,2c-13.3,8.8-26.6,17.7-40,26.4-6.3,4-12.7,7.8-19.4,11.2a24.72,24.72,0,0,1-9.6,2.4c-4.8.3-8-3.2-7.2-7.9.6-3.7,2.2-7.3,3.5-10.9a37.45,37.45,0,0,1,2.2-4.5,4.67,4.67,0,0,1-1-.5c-5.1,5.5-9.5,11.2-9.8,19.3a11.08,11.08,0,0,1-2.5,6c-6.6,7.9-13.5,15.6-20.3,23.3-5.3,6-10.6,11.9-16,17.7-2.7,2.9-6.2,3-9.7,1.6s-5.1-4.5-5.4-8.2c-.3-4.8,2-8.5,5.1-11.7,11.2-11.2,22.6-22.2,33.9-33.2,1.9-1.8,4-3.4,5.9-5.1a1.9,1.9,0,0,0-2,.1c-11.8,9.2-23.5,18.4-35.3,27.5-3.8,3-7.6,6.2-11.8,8.6a13.21,13.21,0,0,1-15.7-2.2c-3.7-3.7-3.3-8.4.9-11.5,3.9-2.8,7.7-5.6,11.6-8.3q18-12.45,36.2-24.9c2.8-1.9,6-3.4,8.9-5.1l-.5-.9c-1.2.5-2.3,1-3.5,1.4-11.4,4-22.7,8.2-34.3,11.7-3.5,1.1-7.7.7-11.4,0-4.6-.9-5.7-5-2.5-8.4a37.21,37.21,0,0,1,6.4-5.5c13.4-9,28.2-14.8,43.7-19.1a8.82,8.82,0,0,1,2.3,0c0,.7-.1,1.2-.1,1.7-1.3,13.7,4.7,21.6,18.5,22.7a98.64,98.64,0,0,0,23-1.1c20.7-3.4,40.1-11.3,59.8-18.1,1.4-.5,2.7-1.1,4-1.7a7.42,7.42,0,0,0-4.2.1c-21,4.7-41.9,9.8-62.9,14-6.9,1.4-14.3.6-21.5.5a16,16,0,0,1-6.3-1.7c-5.2-2.4-7.1-7.1-6.5-14.4.4-5.4,4.9-4.6,8-5.3M178.9,137.2l-.1-.9a3.54,3.54,0,0,0-1.1-.3c-10.1.9-20.2,1.9-30.3,2.6-9.5.6-19,1-28.5.9-3.5,0-7.1-1.3-10.3-2.8-4.8-2.4-5.4-7.2-1.8-11.2a21.34,21.34,0,0,1,15.4-7c9.9-.4,19.8-.9,29.6.1,12.2,1.3,24.3,4.1,36.5,6.2,2.5.4,3.5,2,4.1,4.4a77.29,77.29,0,0,0,3.1,10.7c5.2,13.4,13,25.1,22.3,35.9,2.5,3,5.2,5.9,8.3,9.5-2.7-.5-4.4-.8-6.1-1.1a154.35,154.35,0,0,0-45-1.9c-7.8.9-15.6,2.2-23.4,2.1-10,0-19.8-1.8-28.2-7.9-5.9-4.3-7.3-11.3-2.6-16.8a38.49,38.49,0,0,1,10.5-8.8c12.7-7,26.5-10.5,40.7-12.5,2.5-.4,4.7-.9,6.9-1.2Zm39.2-49.4c-.8.1-1.5.1-2.3.2-9.4.9-13.8,5-15.5,14.2a20.31,20.31,0,0,1-2.6,6.7c-2.4,4.1-5.1,7.9-8.2,12.5.5.1-.1.1-.7-.1a244.11,244.11,0,0,0-77.4-9.6,33.93,33.93,0,0,1-9.5-1.2c-6.4-1.6-7.7-6.4-3.1-11.1,5.4-5.6,12.4-7.6,19.9-8.2,11.1-.8,22.1.5,33,2.8,7.6,1.6,15.1,3.7,23.8,5.9a16.09,16.09,0,0,0-3-1.9c-7.6-2.9-15-6.2-22.8-8.6-11.5-3.4-23.2-5.9-34.7-9.1a46.4,46.4,0,0,1-10.4-3.9c-4.4-2.6-4.1-6.8.6-8.7a30.31,30.31,0,0,1,9-2.1c9.2-.9,17.9,1.2,26.4,4.5,19.4,7.5,37.6,17.3,55.1,28.5a22.07,22.07,0,0,0,2.7,1.2l.4-1c-19-14.8-38.1-29.3-60.4-39.2,13.9-1.9,27.5-1.9,40.7,3.7,14.2,6.2,26.4,15.4,39,24.5Zm-6.6,376.6a16.67,16.67,0,0,1-.1-1.9c4-12.1,9.4-23.4,19.3-31.9a13.71,13.71,0,0,1,7.1-3.3c6-.8,10.9,4.4,11.6,12.2a96.15,96.15,0,0,1,0,14.2c-.2,3.3-1.3,6.6-2,10-2.5-3.9-4.4-7.6-6.9-10.7-3.2-3.9-6.5-4.5-11-2.3a51.8,51.8,0,0,0-8.4,5.3c-3.2,2.6-6.2,5.5-9.6,8.4ZM146,403.2c8.2-6.9,17-11.4,27.5-11.3,7.4,0,12.8,5,12.5,11.4-.6,11.7-7.1,20.8-13.5,30,0-4.5.1-8.6,0-12.6-.3-8.3-3.5-12.7-11.4-14.9-4.7-1.3-9.6-1.7-15.1-2.6Zm104.8,64.9c.1.2-.1,0-.1-.2,3.4-14,10.1-26.1,21.3-35.3,3.3-2.7,6.6-1.4,8.2,2.8,2.5,6.2,2.2,12.6,1.3,19-.7,4.6-2.3,9-3.7,14.2-4.7-7.4-8.1-9.6-13.2-7.7-4.7,1.9-9.1,4.8-13.8,7.2ZM123.1,364.9c9.4-4.5,18.6-8,28.8-5.7,7.4,1.7,11,7.5,9.1,14.8-2.8,10.5-9.5,18.4-18.2,25.8,1.3-5,2.7-9.3,3.5-13.6,1.7-9.7-1.1-14.3-10.4-17.7-4-1.4-8.1-2.3-12.8-3.6Zm52.8,74a6.47,6.47,0,0,1-.8-.9c4-4.2,7.8-8.7,12.2-12.5a34.9,34.9,0,0,1,11-6.8c8.3-3,13.8,1.2,14.3,10,.5,9.6-2.5,18.3-6,27.9-.6-3.7-.9-6.5-1.5-9.2-1.8-9.5-6.9-13-16.6-11.3C184.4,436.8,180.2,437.9,175.9,438.9ZM115.7,323.5c4.5-3.8,11.3-4.8,18.4-3,10.5,2.7,13.2,9.3,7.2,18.4-5.2,7.9-12.5,13.5-20,19-.8.6-1.9.7-4,1.4,1.2-2.6,1.7-4.2,2.5-5.5,2.2-3.3,4.7-6.4,7.1-9.6,4.4-6,3.8-10.4-2.2-14.8-2.8-2.1-5.8-3.8-9-5.9Zm5.8-10.2c5.2-10.5,11-20.1,22-25.2,1.8-.8,4.1-.5,6.1-.6.1,2,.7,4,.3,5.8-2.5,11.1-18.9,20.6-26.8,20.8-.2,0-.5-.2-1.6-.8Z" />
  </g>
</svg>