<svg xmlns="http://www.w3.org/2000/svg" viewBox="0 0 1279.79 54.89">
  <def>
    <style>
      .cls-1 {
        /* fill: #eee; */
      }
    </style>
  </def>
  <g>
    <path class="cls-1"
      d="M605.23,1.39c-10.6,3-22.6,10.2-37.6,22.7-3.2,2.6-6.2,4.8-6.6,4.8s-1.1-2.9-1.3-6.4c-.7-7.7-3.8-14-8.7-17.3-6.4-4.4-17.3-2.2-21.2,4.1-2.4,3.9-2.4,7.3,0,10.9,3.1,4.8,5.7,6,11.2,5.3,2.7-.4,4.9-.4,4.9-.1a17.12,17.12,0,0,1-1.5,3.4c-3.7,7.3-13.6,11.1-23.7,9.2-8.8-1.6-16.5-5-21.4-9.4-4.1-3.8-4.7-4.8-5.1-9.3s-.3-5.3,2.2-7.2c3.7-2.9,8.9-2.9,11,0a21.65,21.65,0,0,1,2.2,6.1c.6,4.3,1.5,5.1,4.3,4.2,1.6-.5,2-1.5,2-5.6,0-5.7-1.8-9.8-5.6-12.8-2.1-1.6-4.1-2.1-9.1-2.1-5.8,0-6.8.3-9.3,2.9a21.07,21.07,0,0,0-4.6,9c-1,3.3-2.3,6.1-3,6.1s-7.3-3.1-14.7-6.9c-23.6-11.9-20.4-11.5-88.2-11.5-55.5.1-58.4.2-67,2.2-10.5,2.5-21.7,6.3-37,12.5-10.9,4.5-22.9,7.6-24.2,6.3-.9-.8.8-3.7,2.8-4.8.8-.4,3.1-1.4,5.2-2.2,3.2-1.3,3.7-1.9,3.7-4.6,0-2.3-.6-3.3-2.2-3.9-4.9-1.8-12.6,2.6-19.8,11.3-3.8,4.7-4.9,5.4-7,4.9-4.4-1-11.1-4.2-14.2-6.8-1.6-1.4-3.7-2.5-4.7-2.5s-3.8,2-6.4,4.5L206,23l-90.3-.3c-93.1-.3-103.6,0-112.5,3.8-3.5,1.4-4.3,3.8-1.7,4.8.9.3,40.4.6,87.8.6s93.2.3,101.7.6l15.4.7L210,37c2,2.2,4.5,3.9,5.5,3.9s3.6-1.4,5.6-3c5.1-4.2,11.6-7,16.5-7,3.9,0,4.4.4,7.4,4.6,9.8,14.3,32.9,12.6,72.5-5.4,12.5-5.6,15.9-6.5,22.6-5.6l4.8.7-2.2,3.6c-4.8,7.6-1.9,20.2,5.2,23.1,2.5,1.1,3.8,1,7.4-.4,8.2-3.1,10.6-10.9,6.2-19.9-1.4-3-2.6-6.1-2.6-7,0-2.3,8.4-8.3,14.4-10.3,7.2-2.4,18.1-1.5,27.6,2.3,9,3.7,10,5.7,3.8,7.3-13.4,3.4-18.8,8-18.8,16,0,6.5,6.8,13,13.5,13,5.9,0,13-5,12.3-8.7-.4-1.9-2.2-2.1-11-.8-4.5.7-4.7.6-5.4-1.9-.8-3.5,2.1-8.4,6.6-10.7,6.6-3.6,15-2.2,36.3,5.7,15.7,5.9,38.5,12.6,51.7,15.4,34.3,7,54,1.3,85.5-25,19.2-16,26.8-19.5,40.5-18.7,14.9.8,23.6,6.7,14.1,9.5-5.2,1.6-8.4,4.3-13,11.1-5.5,8.1-10.4,12.1-14.6,12.1-3.8,0-4.6-1.2-3.3-5.5,1.9-6.6-1.6-11.5-8-11.5s-10.2,4.4-10.2,12.2c.1,10,8,16.8,19.7,16.8a50.31,50.31,0,0,0,22-6l3.2-1.9,7.8,3.5c4.3,1.8,8.8,3.4,10,3.4s5.2-1.5,8.8-3.4l6.6-3.4,7.2,3.1c13.7,5.8,29.1,4.7,35.1-2.4s5.6-17.1-.7-20.9c-8.4-5.1-15.7,1.2-13,11.2,1,3.8,1,3.8-1.9,3.8-4.2,0-6.3-1.4-15-9.6a114.05,114.05,0,0,0-19.6-15,3.79,3.79,0,0,1,.3-2.4c1-3.1,7.9-6,14.7-6,10.7,0,23,6.3,45.6,23.4,17.9,13.5,21.7,15.7,36.8,21.1,8.7,3.2,10.6,3.5,20.3,3.5,26.1,0,44.9-4.4,93.6-22,11.5-4.1,18.3-4.5,21.9-1.1a8.39,8.39,0,0,1,1.2,10.7c-1.1,1.5-2.7,1.9-7.3,1.9-4.9,0-5.8.3-6.1,1.9-.6,3,2.6,4.6,8.7,4.6,12.6,0,18.8-10.5,11.9-20.3-2.5-3.5-6.8-5.7-13.8-7.2l-5.5-1.1,5-3.2c15.9-10.3,35.9-10.9,46.5-1.4l4.3,3.8-3.7,3.5a29.15,29.15,0,0,0-5.2,6.1c-1.9,3.7-1.8,10.4.3,13.9,1.7,2.9,6.7,5.9,9.8,5.9,2.4,0,6.7-2.5,9.5-5.5,2.3-2.5,2.5-3.4,2.4-11.6-.2-8.8-.1-8.9,2.2-8.9,3.8,0,14.2,3.8,21.9,7.9,12,6.5,20.3,9.2,33.5,11.1,13.9,2,29.1-2.2,36.4-9.9,4.2-4.3,8-4.1,16.5.9,3.7,2.2,8,4,9.5,4s5.6-1.8,9.2-3.9c5.1-3.1,8-4.1,13.2-4.7,3.7-.4,48.9-.5,100.4-.2l93.8.5.6-3.4c.4-1.9.3-3.7-.1-4.1s-42.6-.7-93.8-.7c-96.1,0-104.9-.3-115-4.1-8-3-10.4-3-14.8.5-5.3,4.3-10.5,6.4-13.4,5.4-1.3-.4-3.8-3.1-5.7-5.8-4.4-6.7-9.1-9-18.4-9-7.5,0-10.4,1.3-10.4,4.6,0,1.8.6,1.9,7,1.3,7.8-.8,12,.4,14.5,4.2,2,3.2,1.9,5.1-.5,5.9-3.6,1.1-16.5-1.4-28-5.5-33.8-12.1-71.7-18.4-111.5-18.4-35.9-.1-52.5,3-76.7,14.5-9.4,4.4-15.4,6.7-16,6.1s-1.3-3.4-1.7-6.5a25.93,25.93,0,0,0-2.3-7.9c-2.5-3.8-8.3-6.1-13.6-5.5-5.5.6-9.1,3.2-11.6,8.2-2.2,4.5-1.3,6.8,2.7,7.3,2.2.3,3.1-.4,4.8-3.3,3-5.1,5.1-5.9,8.3-3.4,4.5,3.6,5.2,11.9,1.3,17-1.5,2-11.7,8.6-15.4,10-15.4,5.8-32.1.5-34.8-11.2l-.7-2.7,7.5.2c9.3.1,11.7-1.5,11.7-8,0-5-3.5-9.9-8.7-12-10.9-4.6-21,2.9-22.8,17.1-.4,3.2-1.1,5.5-1.8,5.5-1.4,0-6.1-3.2-17.2-11.5-9.6-7.2-19.8-12-29.6-14.1-9.4-1.9-13.5-1.3-23.7,3.9l-8.3,4.2-3.2-1.9C625.13.19,615.73-1.61,605.23,1.39Zm-242.3,8.9c0,1.9-1.2,3.1-5.4,5.5-5.9,3.4-9.5,3.8-19,2-9-1.6-22.3,1.8-48.6,12.7-9.7,4-12.8,4.8-19.6,5.2-4.8.3-9.6,0-11.7-.7-3.7-1.2-6.4-3.7-5.4-4.8a89.65,89.65,0,0,1,10.4-2.9c5.4-1.3,18-5.1,27.9-8.4,25.7-8.4,38.2-10.9,56.7-10.9l14.7-.1Zm74-.8c13.2,2.5,24.2,6.9,46.2,18.5,27.8,14.6,29.4,15.3,39.6,15.1a60.58,60.58,0,0,0,10.2-.7c2.6-.8,2.6,1.1,0,2.5-1.1.6-5.6,1.6-10,2.2-18.1,2.5-36.4-2.4-77.8-21.1-11.1-5-24-10.3-28.5-11.7-9.6-3-10.9-3.6-11.5-5.2C404.53,7.29,426.93,7.59,436.93,9.49Zm438,.3a3.05,3.05,0,0,1-2.2,2.7c-1.3.3-14,5.8-28.3,12.1-33.1,14.7-37.9,16.6-49.5,19.6-12.7,3.4-17.3,4-22,3.2-5.7-1-5-2.9,1.9-5.5a98.78,98.78,0,0,0,12.8-6.2c15.5-9.1,38.6-19.8,50.8-23.5A101.56,101.56,0,0,1,866.23,8C874.23,7.89,874.93,8.09,874.93,9.79Zm69.5.1c12,1.5,29.3,5.9,46.7,12a181.86,181.86,0,0,0,23.8,6.6c10.6,1.8,13.8,3.6,10.5,6-2.5,1.9-8.1,3.4-12.5,3.4-5.3,0-12.6-2.1-31-9-18.2-6.8-30.1-10-37.3-10-6,0-10.7-1.9-13.5-5.5-3.2-4-2.8-5.5,1.1-5C933.93,8.69,939.53,9.29,944.43,9.89Zm120.7,14.7c2.3,2.1,2.3,4-.2,5.3s-7,.3-7-1.6c0-1.4,3.4-5.4,4.7-5.4A6.56,6.56,0,0,1,1065.13,24.59Zm-842.7,1.7c1.6,1.2,1.7,1.6.6,3-1.7,2-6.5,2.1-8.1.1C212.13,26,218.43,23.29,222.43,26.29Zm712,3.7c1.1,3.3-.4,8.8-2.6,10-3.4,1.8-4.9.4-4.9-4.5,0-3.5.5-4.8,2.2-6C932.13,27.29,933.63,27.49,934.43,30Zm-580.5,3a12.82,12.82,0,0,1,1,5.3c0,3.1-.3,3.6-2.4,3.6s-2.6-.6-3.2-4.5c-.3-2.5-.4-5.1,0-6C350,29.59,352.63,30.49,353.93,33Z" />
  </g>
</svg>