<svg xmlns="http://www.w3.org/2000/svg" viewBox="0 0 1277.85 313.48">
  <g>
    <path
      d="M625.4,1.29c-37.9,8.4-67.5,35.1-77.5,70-3,10.3-3.7,29.6-1.5,40.5a89.67,89.67,0,0,0,14.1,33.5l6.2,9.1-14.1,10c-7.7,5.4-14.6,10-15.3,10.2s-5.7-2.8-11.1-6.6c-39.4-28-65.1-42-89.3-48.8-12.5-3.5-32.7-4.4-44.2-2-23.8,4.9-41.9,17.8-50.7,36.1-4.9,10.3-6.1,15.7-6.1,27.1,0,18.2,4.8,29.4,18.5,43,7.7,7.6,10.7,9.9,18.6,13.8,14.6,7.1,19.5,8.1,40,8,15.9,0,18.3-.3,26-2.6,4.7-1.5,10.7-3.6,13.5-4.8l5-2.1-4.7-2.9-4.6-2.9-5.2,2a89.27,89.27,0,0,1-33.4,5.9c-20.8,0-33.8-5.1-47.1-18.4-13-13-19.4-28.9-18.2-45,2.5-33.9,32.4-48.8,75.9-37.7,25.4,6.4,57.9,22.7,89.4,44.7l9.5,6.6-8.3,5.6c-10.9,7.4-26.2,17.3-31.5,20.3-2.4,1.3-4.2,2.8-4,3.2s1.8,1.7,3.8,2.9l3.6,2,10.9-6.7c6-3.7,15.7-10.1,21.7-14.1s11-7.4,11.3-7.4a61,61,0,0,1,6.7,4.4c22,15.6,52.2,30.3,74.3,36.2,20.6,5.5,31.1,6.4,45.2,3.9,29.7-5.2,63.5-19.9,91.9-40.1a61,61,0,0,1,6.7-4.4c.3,0,5.4,3.3,11.3,7.4s15.7,10.4,21.7,14.1l10.9,6.7,3.6-2c2-1.2,3.7-2.4,3.8-2.9s-1.6-1.9-4-3.2c-5.3-3-20.6-12.9-31.5-20.3l-8.3-5.6,9.5-6.6c65-45.4,121.2-59.9,149.1-38.8,17.3,13.1,21.3,38.4,9.7,61.5-5.1,10.2-17.1,22.2-27.2,27-11,5.2-17.9,6.7-31.6,6.7a89.27,89.27,0,0,1-33.4-5.9l-5.2-2-4.6,2.9-4.7,2.9,5,2.1c2.8,1.2,8.8,3.3,13.5,4.8,7.7,2.3,10.1,2.6,26,2.6,20.4.1,25.1-.9,39.9-8,8-3.9,10.9-6,18.6-13.8,13.9-13.7,18.5-24.5,18.5-43.2,0-11.4-1.6-18.1-6.4-27.9-8.7-17.5-27-30.3-50.3-35.1-11.5-2.4-31.7-1.5-44.2,2C816.9,126,791.2,140,751.8,168c-5.4,3.8-10.3,6.8-11.1,6.6s-7.6-4.8-15.3-10.2l-14.1-10,6.2-9.1A87.32,87.32,0,0,0,733,95.39c0-19.2-4.8-35.1-15.5-51.1C697.4,14,655.9-5.31,625.4,1.29Zm25.1,16c27.8,8.1,47.1,23.5,57.9,46.6,6.1,12.9,7.1,18.2,7.1,38.4,0,19.5-1.5,27.8-6.9,38.3-4.6,8.9-4.6,8.9-9.7,5.5-32.7-22.2-62.2-26.9-92.5-14.7a151.49,151.49,0,0,0-27.3,14.7c-4.3,2.9-4.4,2.9-5.9,1.1-2.5-3.3-7-13.6-8.8-19.9-2.1-8-3.1-34.3-1.5-42.7,6.3-33.4,28.6-56.7,64.2-67.2C637.7,14.19,639.8,14.19,650.5,17.29Zm2,118a123.59,123.59,0,0,1,16.4,4.5c8.4,3.3,28.1,14.5,28.1,16,0,1.8-15.9,13.6-23.3,17.2-11.3,5.6-17,6.7-34.7,6.7s-23.4-1.1-34.6-6.5c-7.1-3.5-23.4-15.6-23.4-17.4,0-.5,4.6-3.7,10.2-7C613.4,135.69,631.6,131.69,652.5,135.29Zm-73.7,30.6c11,10,22.4,16.6,34.9,20,6.6,1.9,10.4,2.2,25.3,2.2s18.7-.3,25.3-2.2c12.6-3.4,23.9-10,35-20.1l5.7-5.2,11.8,8.3c6.4,4.5,12.7,9,13.9,9.8s2.3,1.9,2.3,2.2c0,1.3-22.4,15.2-35.3,21.9-17.1,8.9-31.3,14.5-46.2,18.3l-12,3-10-2.3c-14.4-3.2-29.8-9.1-47.1-17.9-14.2-7.3-37.4-21.5-37.4-23,0-.5,27-20,27.9-20.1A77.75,77.75,0,0,1,578.8,165.89Z" />
    <path
      d="M282,155.49a197.64,197.64,0,0,0-31.2,5.7c-46.2,13.5-73.4,52.3-65.3,93.4,4.6,23,20.7,41.1,42.5,47.7,11.7,3.5,34.8,3,47.2-1.1,9-2.9,13.4-9.7,9-13.7-3.9-3.5-10.5-1.1-12.5,4.4-.9,2.8-10.1,4.4-24.2,4.3-11.6,0-13.7-.3-19.8-2.7-15.5-6.1-26.2-17.8-30.3-33.2-1.8-6.6-1.7-20.6.1-27.5,4.2-15.9,16.9-30.9,33.2-39.3,25.7-13.2,65.6-19.4,97.9-15.1l4.1.6,1.1-8.4c.7-4.5,1.4-9.3,1.8-10.4.5-1.9.1-2.2-3.8-2.8C317.5,155.29,296.1,154.39,282,155.49Z" />
    <path
      d="M960.5,155.69c-17.3,1.7-18.7,2.1-18.1,4.5.4,1.1,1.1,5.9,1.8,10.4l1.1,8.4,4.1-.6c24.1-3.2,56.4-.2,79.7,7.4,15.6,5.1,26.3,11.3,35.4,20.5,12.4,12.4,17.5,24.2,17.5,40.6,0,22-11.6,38.8-32.5,46.9-10.9,4.3-41.5,2.9-43.2-1.9-2-5.6-9.2-8.1-12.6-4.3-4,4.4.3,10.7,9.1,13.6,12.4,4.1,35.5,4.6,47.2,1.1,35.1-10.6,52.4-48.5,39.5-86.8-8.5-25-32-45.5-62.2-54.2-4.6-1.4-12.2-3.1-17-4C1000,155.49,972,154.59,960.5,155.69Z" />
    <path
      d="M349,164.49a84.76,84.76,0,0,0-1.6,10.5l-.7,6.6,4.4,1.2a329.74,329.74,0,0,1,36.8,12.7c24.2,10.3,46.3,22.5,97.3,53.9,68.8,42.4,88,52.2,116.3,59.3,41.3,10.4,80.9,4,126-20.6,17.7-9.6,27.3-15.4,65.5-38.8,50.9-31.3,73-43.5,97.1-53.8a350,350,0,0,1,36.7-12.7c3.8-1,4.2-1.4,4.2-4.2,0-4.1-1.9-15.1-2.9-16.7-.7-1-2.8-.7-10.6,1.4-29.2,7.9-62.7,24.7-114.1,57-64.2,40.5-80.7,50.2-101.9,59.8-47.7,21.7-77.9,21.6-126-.5-18.4-8.4-41.5-21.7-83.5-48.3-56.6-35.7-82.5-50.1-108.7-60.3-10.7-4.2-29.9-10.2-32.5-10.2C350.4,160.79,349.6,162.49,349,164.49Z" />
    <path d="M3.1,266.49c-1.7,2.1-3.1,4.1-3.1,4.5s42.5.8,94.5.8h94.4l-1.8-4.3-1.8-4.2L95.7,263l-89.5-.2Z" />
    <path
      d="M201,263.29a37.73,37.73,0,0,0,1.6,4.5l1.6,4H482.7l3.1-3.9a24.43,24.43,0,0,0,3.2-4.5c0-.3-64.8-.6-144-.6S201,263,201,263.29Z" />
    <path
      d="M789,263.39a23.4,23.4,0,0,0,3.1,4.5l3.1,3.9h278.6l1.6-4a37.73,37.73,0,0,0,1.6-4.5c0-.3-64.8-.5-144-.5S789,263.09,789,263.39Z" />
    <path d="M1091.1,267l-1.8,4.3,94,.3c51.7.1,94.3,0,94.5-.3s-.8-2.2-2.5-4.3l-3-3.7-89.7-.3-89.7-.2Z" />
  </g>
</svg>